<svg width="295" height="244" viewBox="0 0 295 244" fill="none" xmlns="http://www.w3.org/2000/svg">
<path d="M246.771 221.997C250.476 228.79 243.34 236.362 236.34 233.066L147 191L219.5 172L246.771 221.997Z" fill="#83B1FE"/>
<path d="M14.3891 48.3262C16.6574 43.2848 25.3559 24.7108 46.459 14.0501C56.9413 8.86801 68.5565 6.37123 80.2526 6.78587C116.797 7.30157 141.713 33.7711 147.5 40.244C153.278 33.7711 178.204 7.34603 214.748 6.78587C226.444 6.37123 238.059 8.86801 248.542 14.0501C269.645 24.7197 278.343 43.2848 280.612 48.3262C285.065 58.4022 287.239 69.3297 286.979 80.335C286.979 84.2116 286.649 100.029 276.646 120.737C266.421 141.916 251.962 154.702 242.094 164.305C217.969 187.635 191.02 207.943 162.065 224.948C153.073 230.228 141.927 230.228 132.936 224.948C103.981 207.943 77.0322 187.635 52.907 164.305C43.0833 154.72 28.5799 141.934 18.3453 120.737C8.35195 100.029 8.03044 84.2116 8.02151 80.335C7.75724 69.3293 9.93127 58.4008 14.3891 48.3262Z" fill="url(#paint0_linear_6_131)"/>
<g filter="url(#filter0_f_6_131)">
<path d="M268.286 58.1826C266.227 53.6688 258.334 37.0386 239.185 27.4936C229.674 22.8538 219.134 20.6183 208.521 20.9896C175.36 21.4513 152.751 45.1507 147.5 50.9462C142.257 45.1507 119.639 21.4911 86.4785 20.9896C75.8654 20.6183 65.3257 22.8538 55.814 27.4936C36.6648 37.0466 28.7718 53.6688 26.7134 58.1826C22.6725 67.2042 20.6999 76.9881 20.9355 86.8417C20.9355 90.3126 21.2353 104.475 30.3115 123.016C39.5903 141.979 52.7102 153.426 61.6649 162.024C83.5562 182.913 108.01 201.095 134.284 216.321C142.443 221.048 152.557 221.048 160.716 216.321C186.99 201.095 211.443 182.913 233.334 162.024C242.249 153.442 255.409 141.994 264.696 123.016C273.764 104.475 274.056 90.3126 274.064 86.8417C274.304 76.9877 272.331 67.2029 268.286 58.1826Z" fill="url(#paint1_linear_6_131)" fill-opacity="0.2"/>
</g>
<defs>
<filter id="filter0_f_6_131" x="0.916626" y="0.949833" width="293.167" height="238.917" filterUnits="userSpaceOnUse" color-interpolation-filters="sRGB">
<feFlood flood-opacity="0" result="BackgroundImageFix"/>
<feBlend mode="normal" in="SourceGraphic" in2="BackgroundImageFix" result="shape"/>
<feGaussianBlur stdDeviation="10" result="effect1_foregroundBlur_6_131"/>
</filter>
<linearGradient id="paint0_linear_6_131" x1="32.5417" y1="24.179" x2="203.432" y2="196.862" gradientUnits="userSpaceOnUse">
<stop stop-color="#FF6AB7"/>
<stop offset="0.588542" stop-color="#B394E1"/>
<stop offset="1" stop-color="#7FB2FF"/>
</linearGradient>
<linearGradient id="paint1_linear_6_131" x1="67.4166" y1="64.2207" x2="217.125" y2="165.878" gradientUnits="userSpaceOnUse">
<stop stop-color="white"/>
<stop offset="1" stop-color="white" stop-opacity="0"/>
</linearGradient>
</defs>
</svg>
