<svg width="491" height="444" viewBox="0 0 491 444" fill="none" xmlns="http://www.w3.org/2000/svg">
<rect y="200" width="491" height="196" rx="98" fill="#FF6AB7"/>
<path d="M94.5962 431.846C88.3215 435.947 80.3585 429.94 82.5781 422.78L91.5 394H152.5L94.5962 431.846Z" fill="#FF6AB7"/>
<rect width="491" height="200" rx="30" fill="#FFB45C"/>
<path d="M445.218 240.783C446.646 247.66 439.151 252.908 433.177 249.212L352 199H436.544L445.218 240.783Z" fill="#FFB45C"/>
<path d="M166.788 237.009L168.498 231.024" stroke="black" stroke-width="2.8" stroke-linecap="round"/>
<path d="M160.803 237.009L162.513 231.024" stroke="black" stroke-width="2.8" stroke-linecap="round"/>
<ellipse cx="155.904" cy="248.663" rx="6.35459" ry="11.4748" transform="rotate(-9.79297 155.904 248.663)" fill="black"/>
<path d="M166.788 237.009L147.123 238.719" stroke="black" stroke-width="2.8" stroke-linecap="round"/>
<path d="M247.752 222.215L248.091 216" stroke="black" stroke-width="2.8" stroke-linecap="round"/>
<path d="M247.752 222.215L228.958 228.249" stroke="black" stroke-width="2.8" stroke-linecap="round"/>
<path d="M241.917 223.544L242.255 217.329" stroke="black" stroke-width="2.8" stroke-linecap="round"/>
<ellipse cx="237.359" cy="236.081" rx="6.46202" ry="11.1234" transform="rotate(-8.10214 237.359 236.081)" fill="black"/>
<path d="M207.829 244.616C207.985 245.622 207.605 246.72 206.658 247.696C205.71 248.673 204.248 249.455 202.482 249.73C200.716 250.005 199.086 249.704 197.886 249.062C196.687 248.42 195.991 247.489 195.834 246.483C195.678 245.477 196.058 244.379 197.005 243.403C197.953 242.426 199.415 241.644 201.181 241.369C202.947 241.094 204.577 241.395 205.777 242.037C206.976 242.679 207.672 243.61 207.829 244.616Z" fill="white" stroke="black" stroke-width="2.8"/>
<path d="M205.255 262.659L206.11 260.521L206.445 259.684C206.789 258.823 207.273 258.025 207.876 257.321L208.459 256.641C209.157 255.826 210.092 255.231 211.125 254.936V254.936C212.033 254.676 213.005 254.657 213.922 254.886V254.886C215.222 255.211 216.354 256.009 217.098 257.124L217.215 257.301C217.505 257.736 217.737 258.207 217.903 258.703L218.063 259.178C218.633 260.875 218.723 262.697 218.322 264.442L218.216 264.905C217.845 266.523 217.124 268.04 216.105 269.351L214.66 271.209" stroke="black" stroke-width="2.8" stroke-linecap="round"/>
<path d="M214.66 271.209L216.383 271.639C217.509 271.921 218.591 272.356 219.598 272.931L220.245 273.301C220.794 273.615 221.299 274 221.745 274.447V274.447C222.702 275.403 223.369 276.631 223.663 277.951V277.951C223.924 279.126 223.891 280.365 223.56 281.523L223.395 282.103C223.272 282.534 223.109 282.953 222.908 283.353L222.748 283.674C222.213 284.745 221.372 285.633 220.333 286.227V286.227C219.417 286.751 218.38 287.026 217.324 287.026L216.281 287.026C215.207 287.026 214.14 286.853 213.121 286.513L210.812 285.743" stroke="black" stroke-width="2.8" stroke-linecap="round"/>
</svg>
