<svg width="295" height="240" viewBox="0 0 295 240" fill="none" xmlns="http://www.w3.org/2000/svg">
<path d="M14.3891 48.3262C16.6574 43.2848 25.3559 24.7108 46.459 14.0501C56.9413 8.86801 68.5565 6.37123 80.2526 6.78587C116.797 7.30157 141.713 33.7711 147.5 40.244C153.278 33.7711 178.204 7.34603 214.748 6.78587C226.444 6.37123 238.059 8.86801 248.542 14.0501C269.645 24.7197 278.343 43.2848 280.612 48.3262C285.065 58.4022 287.239 69.3297 286.979 80.335C286.979 84.2116 286.649 100.029 276.646 120.737C266.421 141.916 251.962 154.702 242.094 164.305C217.969 187.635 191.02 207.943 162.065 224.948C153.073 230.228 141.927 230.228 132.936 224.948C103.981 207.943 77.0322 187.635 52.907 164.305C43.0833 154.72 28.5799 141.934 18.3453 120.737C8.35195 100.029 8.03044 84.2116 8.02151 80.335C7.75724 69.3293 9.93127 58.4008 14.3891 48.3262Z" fill="url(#paint0_linear_6_95)"/>
<g filter="url(#filter0_f_6_95)">
<path d="M268.286 58.1826C266.227 53.6688 258.334 37.0386 239.185 27.4936C229.674 22.8538 219.134 20.6183 208.521 20.9896C175.36 21.4513 152.751 45.1507 147.5 50.9462C142.257 45.1507 119.639 21.4911 86.4785 20.9896C75.8654 20.6183 65.3257 22.8538 55.814 27.4936C36.6648 37.0466 28.7718 53.6688 26.7134 58.1826C22.6725 67.2042 20.6999 76.9881 20.9355 86.8417C20.9355 90.3126 21.2353 104.475 30.3115 123.016C39.5903 141.979 52.7102 153.426 61.6649 162.024C83.5562 182.913 108.01 201.095 134.284 216.321C142.443 221.048 152.557 221.048 160.716 216.321C186.99 201.095 211.443 182.913 233.334 162.024C242.249 153.442 255.409 141.994 264.696 123.016C273.764 104.475 274.056 90.3126 274.064 86.8417C274.304 76.9877 272.331 67.2029 268.286 58.1826Z" fill="url(#paint1_linear_6_95)" fill-opacity="0.2"/>
</g>
<path d="M99.7325 80.3235L104.126 69.9658" stroke="black" stroke-width="4" stroke-linecap="round"/>
<path d="M88.9962 78.9974L93.3898 68.6398" stroke="black" stroke-width="4" stroke-linecap="round"/>
<ellipse cx="88.6109" cy="98.3533" rx="11.4863" ry="20.7412" transform="rotate(-2.75231 88.6109 98.3533)" fill="black"/>
<path d="M99.7325 80.3235L64.0767 79.0341" stroke="black" stroke-width="4" stroke-linecap="round"/>
<ellipse cx="92.0714" cy="89.0068" rx="4.56304" ry="3.43982" transform="rotate(87.4412 92.0714 89.0068)" fill="white"/>
<path d="M236.239 72.1022L238.223 61.0276" stroke="black" stroke-width="4" stroke-linecap="round"/>
<path d="M236.239 72.1022L201.187 78.7614" stroke="black" stroke-width="4" stroke-linecap="round"/>
<path d="M225.476 73.193L227.46 62.1184" stroke="black" stroke-width="4" stroke-linecap="round"/>
<ellipse cx="214.522" cy="94.6732" rx="11.6804" ry="20.1062" transform="rotate(-1.06148 214.522 94.6732)" fill="black"/>
<ellipse cx="217.379" cy="84.2363" rx="4.56304" ry="3.43982" transform="rotate(87.4412 217.379 84.2363)" fill="white"/>
<path d="M163.357 103.827C163.407 105.417 162.607 107.031 160.978 108.342C159.348 109.653 156.978 110.565 154.247 110.652C151.515 110.738 149.092 109.976 147.383 108.771C145.675 107.566 144.775 106.004 144.725 104.415C144.675 102.825 145.474 101.211 147.103 99.9003C148.733 98.5891 151.103 97.6765 153.835 97.5903C156.566 97.5041 158.989 98.2655 160.698 99.4713C162.406 100.676 163.306 102.237 163.357 103.827Z" fill="white" fill-opacity="0.8" stroke="black" stroke-width="4"/>
<path d="M148.658 139.586L150.341 136.53L151.001 135.332C151.678 134.101 152.554 132.99 153.592 132.044L154.595 131.129C155.797 130.033 157.314 129.311 158.922 129.06V129.06C160.336 128.838 161.802 128.99 163.138 129.505V129.505C165.033 130.235 166.588 131.646 167.499 133.461L167.644 133.749C167.999 134.457 168.259 135.209 168.418 135.985L168.569 136.729C169.112 139.388 168.909 142.145 167.982 144.695L167.736 145.372C166.877 147.737 165.511 149.886 163.735 151.667L161.216 154.194" stroke="black" stroke-width="4" stroke-linecap="round"/>
<path d="M161.216 154.194L163.728 155.162C165.369 155.794 166.916 156.649 168.324 157.702L169.229 158.379C169.996 158.952 170.683 159.626 171.273 160.381V160.381C172.533 161.997 173.31 163.967 173.506 166.008V166.008C173.68 167.824 173.401 169.681 172.688 171.362L172.331 172.204C172.066 172.829 171.743 173.428 171.367 173.994L171.067 174.446C170.063 175.957 168.633 177.137 166.959 177.838V177.838C165.484 178.455 163.873 178.677 162.285 178.481L160.717 178.287C159.101 178.087 157.528 177.629 156.059 176.928L152.729 175.342" stroke="black" stroke-width="4" stroke-linecap="round"/>
<ellipse cx="199.812" cy="212.43" rx="9.6875" ry="10.5704" fill="#81B2FF"/>
<ellipse cx="205.625" cy="204.124" rx="10.3333" ry="17.3656" fill="#81B2FF"/>
<ellipse cx="221" cy="197.5" rx="17" ry="19.5" fill="#81B2FF"/>
<ellipse cx="224.354" cy="195.66" rx="13.5625" ry="17.167" fill="#81B2FF"/>
<ellipse cx="229.5" cy="203" rx="13.5" ry="10" fill="#81B2FF"/>
<path d="M221.309 173.102V173.102C223.526 176.226 226.153 179.039 229.118 181.465L229.201 181.533L232.704 184.399C233.402 184.97 234.056 185.592 234.663 186.259L235.854 187.569C237.188 189.037 238.124 190.823 238.57 192.756V192.756C238.939 194.358 238.964 196.02 238.641 197.632L238.563 198.023C238.121 200.234 237.13 202.297 235.68 204.024L234.549 205.373" stroke="black" stroke-width="4" stroke-linecap="round"/>
<path d="M218.029 187.361L227.132 194.359L229.717 196.944C230.2 197.426 230.648 197.943 231.058 198.489L231.408 198.956C232.408 200.289 233.112 201.82 233.473 203.446V203.446C233.658 204.281 233.752 205.134 233.752 205.989L233.752 206.109C233.752 207.905 233.327 209.69 232.524 211.296V211.296C231.705 212.934 230.496 214.367 229.015 215.444V215.444C227.507 216.541 225.754 217.252 223.908 217.516L223.651 217.552C221.856 217.809 220.027 217.671 218.291 217.148L215.546 216.322" stroke="black" stroke-width="4" stroke-linecap="round"/>
<path d="M211.824 203.875V203.875C215.371 206.876 219.505 209.103 223.962 210.414L224.236 210.494" stroke="black" stroke-width="4" stroke-linecap="round"/>
<path d="M225.471 177.469L226.146 175.43C227.627 170.96 228.651 166.351 229.201 161.674V161.674L229.201 159.293C229.201 157.574 229.059 155.857 228.776 154.161L228.654 153.427C228.467 152.307 228.193 151.204 227.834 150.127L227.708 149.748C227.052 147.782 226.085 145.935 224.841 144.277L224.247 143.485C223.418 142.379 222.418 141.411 221.285 140.618L220.428 140.019C219.394 139.295 218.211 138.812 216.966 138.604L216.055 138.452C214.659 138.219 213.227 138.492 212.014 139.219V139.219C210.575 140.082 209.568 141.512 209.239 143.156L209.12 143.75C208.993 144.388 208.951 145.04 208.996 145.69L209.446 152.225C209.652 155.21 209.619 158.207 209.349 161.186L208.928 165.812L208.346 169.889C207.907 172.958 207.215 175.985 206.275 178.939V178.939C205.288 182.042 204.031 185.052 202.52 187.937L200.24 192.29L194.448 200.979L192.55 203.825C191.614 205.229 190.902 206.769 190.438 208.391L190.155 209.383C189.712 210.934 189.601 212.561 189.829 214.157L189.958 215.062C190.188 216.671 190.88 218.179 191.95 219.402V219.402C192.777 220.347 193.806 221.094 194.96 221.589L195.849 221.97C197.911 222.854 200.172 223.173 202.399 222.895L202.72 222.855C204.631 222.616 206.471 221.981 208.123 220.99L209.885 219.932C212.531 218.345 214.84 216.253 216.68 213.776L219.679 209.74" stroke="black" stroke-width="4" stroke-linecap="round"/>
<path d="M238.717 197.669L240.163 198.874C240.848 199.445 241.426 200.134 241.869 200.909L241.914 200.987C242.53 202.066 242.854 203.287 242.854 204.53V204.53C242.854 205.193 242.762 205.853 242.58 206.491L242.386 207.168C242.148 208.002 241.782 208.793 241.301 209.514L241.17 209.711C240.643 210.501 239.965 211.179 239.175 211.706V211.706C238.328 212.271 237.37 212.65 236.366 212.817L236.098 212.862C235.638 212.938 235.173 212.977 234.707 212.977L231.684 212.977" stroke="black" stroke-width="4" stroke-linecap="round"/>
<defs>
<filter id="filter0_f_6_95" x="0.916626" y="0.949833" width="293.167" height="238.917" filterUnits="userSpaceOnUse" color-interpolation-filters="sRGB">
<feFlood flood-opacity="0" result="BackgroundImageFix"/>
<feBlend mode="normal" in="SourceGraphic" in2="BackgroundImageFix" result="shape"/>
<feGaussianBlur stdDeviation="10" result="effect1_foregroundBlur_6_95"/>
</filter>
<linearGradient id="paint0_linear_6_95" x1="32.5417" y1="24.179" x2="203.432" y2="196.862" gradientUnits="userSpaceOnUse">
<stop stop-color="#FF6AB7"/>
<stop offset="0.588542" stop-color="#B394E1"/>
<stop offset="1" stop-color="#7FB2FF"/>
</linearGradient>
<linearGradient id="paint1_linear_6_95" x1="67.4166" y1="64.2207" x2="217.125" y2="165.878" gradientUnits="userSpaceOnUse">
<stop stop-color="white"/>
<stop offset="1" stop-color="white" stop-opacity="0"/>
</linearGradient>
</defs>
</svg>
